<svg width="756" height="47" viewBox="0 0 756 47" fill="none" xmlns="http://www.w3.org/2000/svg">
<g clip-path="url(#clip0)">
<path d="M45.1 21.91V22.49C45.1 36.41 36.53 46.78 22.74 46.78C9.15 46.77 0 35.69 0 23.39C0 10.63 9.73 0 22.81 0C33.63 0 40.59 5.48 43.56 12.76H37.63C35.37 8.06 30.09 4.77 22.81 4.77C12.05 4.77 5.54 13.21 5.54 23.13C5.54 34.6 13.21 42.01 23.19 42.01C32.15 42.01 38.65 35.5 39.43 26.8H20.62V21.9H45.1V21.91Z" fill="#fafafa"/>
<path d="M53.15 8.70999V3.35999H58.5V8.70999H53.15ZM53.15 46.77V14.09H58.5V46.77H53.15Z" fill="#fafafa"/>
<path d="M94.49 46.77L94.48 41.45C91.31 44.99 87.37 46.77 82.65 46.77C78.18 46.77 74.38 45.13 71.23 41.86C68.11 38.57 66.54 34.68 66.54 30.19C66.54 25.62 68.17 21.71 71.42 18.46C74.69 15.19 78.61 13.55 83.18 13.55C87.77 13.55 91.69 15.19 94.94 18.46C98.19 21.71 99.82 25.62 99.82 30.19L99.83 46.77H94.49ZM94.49 30.2C94.49 27.12 93.38 24.47 91.16 22.27C88.94 20.05 86.28 18.94 83.2 18.94C80.14 18.94 77.5 20.05 75.27 22.27C73.05 24.47 71.94 27.11 71.94 30.2C71.94 33.28 73.05 35.94 75.27 38.16C77.49 40.36 80.14 41.46 83.2 41.46C86.26 41.46 88.92 40.36 91.16 38.16C93.38 35.93 94.49 33.28 94.49 30.2Z" fill="#fafafa"/>
<path d="M130.44 46.77V27.52C130.44 25.15 129.59 23.13 127.89 21.45C126.21 19.77 124.2 18.93 121.85 18.93C119.48 18.93 117.46 19.77 115.78 21.45C114.1 23.13 113.26 25.15 113.26 27.52V46.77H107.88V27.52C107.88 23.83 109.29 20.58 112.1 17.77C114.91 14.96 118.16 13.55 121.85 13.55C125.52 13.55 128.76 14.96 131.57 17.77C134.38 20.58 135.79 23.83 135.79 27.52V46.77H130.44Z" fill="#fafafa"/>
<path d="M170.87 41.99C167.62 45.18 163.73 46.77 159.2 46.77C154.61 46.77 150.67 45.18 147.37 41.99C144.12 38.78 142.49 34.88 142.49 30.29C142.49 25.66 144.1 21.71 147.33 18.46C150.56 15.19 154.49 13.55 159.13 13.55C161.42 13.55 163.66 14.01 165.86 14.93L163.66 19.87C162.15 19.24 160.63 18.93 159.1 18.93C155.95 18.93 153.3 20.03 151.14 22.23C148.96 24.45 147.87 27.13 147.87 30.25C147.87 33.37 148.98 36.02 151.2 38.18C153.44 40.36 156.11 41.45 159.19 41.45C162.27 41.45 164.89 40.37 167.05 38.21C169.21 36.05 170.31 33.41 170.35 30.28H175.76C175.73 34.88 174.1 38.78 170.87 41.99Z" fill="#fafafa"/>
<path d="M209.09 46.77L209.08 41.45C205.91 44.99 201.97 46.77 197.25 46.77C192.78 46.77 188.98 45.13 185.83 41.86C182.71 38.57 181.14 34.68 181.14 30.19C181.14 25.62 182.77 21.71 186.02 18.46C189.29 15.19 193.21 13.55 197.78 13.55C202.37 13.55 206.29 15.19 209.54 18.46C212.79 21.71 214.42 25.62 214.42 30.19L214.43 46.77H209.09ZM209.09 30.2C209.09 27.12 207.98 24.47 205.76 22.27C203.54 20.05 200.88 18.94 197.8 18.94C194.74 18.94 192.1 20.05 189.87 22.27C187.65 24.47 186.54 27.11 186.54 30.2C186.54 33.28 187.65 35.94 189.87 38.16C192.09 40.36 194.74 41.46 197.8 41.46C200.86 41.46 203.52 40.36 205.76 38.16C207.98 35.93 209.09 33.28 209.09 30.2Z" fill="#fafafa"/>
<path d="M230.38 21.45C228.7 23.13 227.86 25.15 227.86 27.52L227.85 46.77H222.47L222.48 27.52C222.48 23.83 223.89 20.58 226.7 17.77C229.51 14.96 232.76 13.55 236.45 13.55V18.93C234.08 18.94 232.06 19.77 230.38 21.45Z" fill="#fafafa"/>
<path d="M243.15 46.79V3.35999H248.5V46.78H243.15V46.79Z" fill="#fafafa"/>
<path d="M289.84 30.2C289.84 34.77 288.21 38.68 284.96 41.93C281.73 45.16 277.81 46.77 273.19 46.77C268.6 46.77 264.68 45.16 261.43 41.93C258.18 38.68 256.55 34.77 256.55 30.2C256.55 25.63 258.18 21.72 261.43 18.47C264.7 15.2 268.62 13.56 273.19 13.56C277.78 13.56 281.7 15.2 284.96 18.47C288.21 21.71 289.84 25.63 289.84 30.2ZM284.49 30.2C284.49 27.12 283.38 24.47 281.16 22.27C278.94 20.05 276.28 18.94 273.2 18.94C270.14 18.94 267.5 20.05 265.27 22.27C263.05 24.47 261.94 27.11 261.94 30.2C261.94 33.28 263.05 35.94 265.27 38.16C267.49 40.36 270.14 41.46 273.2 41.46C276.26 41.46 278.92 40.36 281.16 38.16C283.38 35.93 284.49 33.28 284.49 30.2Z" fill="#fafafa"/>
<path d="M334.35 46.3H326.96L311.32 3.35999H317.01L330.63 40.73L344.22 3.35999H349.98L334.35 46.3Z" fill="#fafafa"/>
<path d="M381.03 41.99C377.78 45.18 373.89 46.77 369.36 46.77C364.77 46.77 360.83 45.18 357.53 41.99C354.28 38.78 352.65 34.87 352.65 30.26C352.65 25.63 354.26 21.69 357.49 18.46C360.72 15.19 364.64 13.55 369.25 13.55C372.54 13.55 375.58 14.45 378.37 16.26C381.16 18.04 383.21 20.45 384.54 23.5L361.58 38.41C363.74 40.44 366.33 41.46 369.35 41.46C372.47 41.46 375.11 40.38 377.25 38.22C379.41 36.04 380.5 33.4 380.52 30.29H385.93C385.9 34.88 384.26 38.78 381.03 41.99ZM369.27 18.94C366.12 18.94 363.47 20.05 361.31 22.27C359.13 24.49 358.04 27.16 358.04 30.26C358.04 31.39 358.25 32.61 358.67 33.91L377.04 21.99C374.88 19.95 372.29 18.94 369.27 18.94Z" fill="#fafafa"/>
<path d="M400.57 21.45C398.89 23.13 398.05 25.15 398.05 27.52V46.3H392.67V27.52C392.67 23.83 394.08 20.58 396.89 17.77C399.7 14.96 402.95 13.55 406.64 13.55V18.93C404.27 18.94 402.24 19.77 400.57 21.45Z" fill="#fafafa"/>
<path d="M443.91 30.2C443.91 34.77 442.28 38.68 439.03 41.93C435.8 45.16 431.88 46.77 427.27 46.77C422.68 46.77 418.76 45.16 415.51 41.93C412.26 38.68 410.63 34.77 410.63 30.2C410.63 25.63 412.26 21.72 415.51 18.47C418.78 15.2 422.7 13.56 427.27 13.56C431.86 13.56 435.78 15.2 439.03 18.47C442.29 21.71 443.91 25.63 443.91 30.2ZM438.57 30.2C438.57 27.12 437.46 24.47 435.24 22.27C433.02 20.05 430.36 18.94 427.28 18.94C424.22 18.94 421.58 20.05 419.35 22.27C417.13 24.47 416.02 27.11 416.02 30.2C416.02 33.28 417.13 35.94 419.35 38.16C421.57 40.36 424.22 41.46 427.28 41.46C430.34 41.46 433 40.36 435.24 38.16C437.46 35.93 438.57 33.28 438.57 30.2Z" fill="#fafafa"/>
<path d="M473.2 46.3V27.52C473.2 25.15 472.35 23.13 470.65 21.45C468.97 19.77 466.96 18.93 464.61 18.93C462.24 18.93 460.22 19.77 458.54 21.45C456.86 23.13 456.02 25.15 456.02 27.52V46.3H450.64V27.52C450.64 23.83 452.05 20.58 454.86 17.77C457.67 14.96 460.92 13.55 464.61 13.55C468.28 13.55 471.52 14.96 474.33 17.77C477.14 20.58 478.55 23.83 478.55 27.52V46.3H473.2Z" fill="#fafafa"/>
<path d="M513.62 41.99C510.37 45.18 506.48 46.77 501.95 46.77C497.36 46.77 493.42 45.18 490.12 41.99C486.87 38.78 485.24 34.87 485.24 30.26C485.24 25.63 486.85 21.69 490.08 18.46C493.31 15.19 497.23 13.55 501.84 13.55C505.13 13.55 508.17 14.45 510.96 16.26C513.75 18.04 515.8 20.45 517.13 23.5L494.17 38.41C496.33 40.44 498.92 41.46 501.94 41.46C505.06 41.46 507.7 40.38 509.84 38.22C512 36.04 513.09 33.4 513.11 30.29H518.52C518.49 34.88 516.85 38.78 513.62 41.99ZM501.86 18.94C498.71 18.94 496.06 20.05 493.9 22.27C491.72 24.49 490.63 27.16 490.63 30.26C490.63 31.39 490.84 32.61 491.26 33.91L509.63 21.99C507.47 19.95 504.88 18.94 501.86 18.94Z" fill="#fafafa"/>
<path d="M545.4 37.5C545.4 40.08 544.47 42.27 542.6 44.07C540.73 45.87 538.52 46.78 535.96 46.78C533.78 46.78 531.83 46.11 530.11 44.77C528.37 43.41 527.27 41.69 526.81 39.61L531.97 38.19C532.05 38.67 532.22 39.11 532.47 39.51C532.72 39.91 533.02 40.25 533.38 40.53C533.74 40.81 534.13 41.04 534.58 41.21C535.02 41.38 535.48 41.46 535.96 41.46C537.09 41.46 538.06 41.07 538.85 40.3C539.67 39.52 540.08 38.59 540.08 37.5C540.08 35.78 538.92 34.39 536.59 33.32C534.56 32.38 533 31.65 531.92 31.15C530.84 30.65 530.24 30.35 530.11 30.27C527.78 28.61 526.62 26.19 526.62 23C526.62 20.42 527.54 18.21 529.39 16.36C531.26 14.49 533.48 13.56 536.06 13.56C538.18 13.56 540.1 14.24 541.82 15.6C543.54 16.94 544.64 18.66 545.12 20.76L539.93 22.14C539.45 20 538.16 18.93 536.06 18.93C534.97 18.93 534 19.33 533.17 20.13C532.37 20.93 531.97 21.88 531.97 22.99C531.97 24.69 533.13 26.07 535.46 27.14C537.47 28.08 539.01 28.81 540.08 29.33C541.15 29.84 541.76 30.15 541.9 30.26C544.23 31.94 545.4 34.35 545.4 37.5Z" fill="#fafafa"/>
<path d="M581.82 41.99C578.57 45.18 574.68 46.77 570.15 46.77C565.56 46.77 561.61 45.18 558.32 41.99C555.07 38.78 553.44 34.87 553.44 30.26C553.44 25.63 555.05 21.69 558.28 18.46C561.51 15.19 565.43 13.55 570.05 13.55C573.34 13.55 576.38 14.45 579.17 16.26C581.96 18.04 584.01 20.45 585.34 23.5L562.38 38.41C564.54 40.44 567.13 41.46 570.15 41.46C573.27 41.46 575.91 40.38 578.05 38.22C580.21 36.04 581.3 33.4 581.32 30.29H586.73C586.69 34.88 585.05 38.78 581.82 41.99ZM570.06 18.94C566.91 18.94 564.26 20.05 562.1 22.27C559.92 24.49 558.83 27.16 558.83 30.26C558.83 31.39 559.04 32.61 559.46 33.91L577.83 21.99C575.67 19.95 573.08 18.94 570.06 18.94Z" fill="#fafafa"/>
<path d="M642.25 46.3L631.46 27.52H618.94V46.3H613.59V3.35999H636.4C639.69 3.35999 642.52 4.55999 644.89 6.94999C647.28 9.31999 648.48 12.15 648.48 15.44C648.48 18.52 647.43 21.22 645.33 23.52C643.21 25.83 640.63 27.14 637.59 27.45L648.47 46.29H642.25V46.3ZM643.1 15.44C643.1 13.62 642.44 12.04 641.12 10.72C639.8 9.37999 638.23 8.70999 636.4 8.70999H618.94V22.14H636.4C638.22 22.14 639.8 21.48 641.12 20.16C642.44 18.84 643.1 17.27 643.1 15.44Z" fill="#fafafa"/>
<path d="M656.53 8.70999V3.35999H661.88V8.70999H656.53ZM656.53 46.3V14.09H661.88V46.3H656.53Z" fill="#fafafa"/>
<path d="M698.31 41.99C695.06 45.18 691.17 46.77 686.64 46.77C682.05 46.77 678.1 45.18 674.81 41.99C671.56 38.78 669.93 34.88 669.93 30.29C669.93 25.66 671.54 21.71 674.77 18.46C678 15.19 681.93 13.55 686.57 13.55C688.86 13.55 691.1 14.01 693.3 14.93L691.1 19.87C689.59 19.24 688.07 18.93 686.54 18.93C683.39 18.93 680.74 20.03 678.58 22.23C676.4 24.45 675.31 27.13 675.31 30.25C675.31 33.37 676.42 36.02 678.64 38.18C680.88 40.36 683.55 41.45 686.63 41.45C689.71 41.45 692.33 40.37 694.49 38.21C696.65 36.05 697.75 33.41 697.79 30.28H703.2C703.17 34.88 701.54 38.78 698.31 41.99Z" fill="#fafafa"/>
<path d="M736.97 41.99C733.72 45.18 729.83 46.77 725.3 46.77C720.71 46.77 716.76 45.18 713.47 41.99C710.22 38.78 708.59 34.88 708.59 30.29C708.59 25.66 710.2 21.71 713.43 18.46C716.66 15.19 720.59 13.55 725.23 13.55C727.52 13.55 729.76 14.01 731.96 14.93L729.76 19.87C728.25 19.24 726.73 18.93 725.2 18.93C722.05 18.93 719.4 20.03 717.24 22.23C715.06 24.45 713.97 27.13 713.97 30.25C713.97 33.37 715.08 36.02 717.3 38.18C719.54 40.36 722.21 41.45 725.29 41.45C728.37 41.45 730.99 40.37 733.15 38.21C735.31 36.05 736.41 33.41 736.45 30.28H741.86C741.83 34.88 740.2 38.78 736.97 41.99Z" fill="#fafafa"/>
<path d="M749.96 8.70999V3.35999H755.31V8.70999H749.96ZM749.96 46.3V14.09H755.31V46.3H749.96Z" fill="#fafafa"/>
</g>
<defs>
<clipPath id="clip0">
<rect width="755.31" height="46.79" fill="white"/>
</clipPath>
</defs>
</svg>
